#N canvas 984 66 901 844 10;
#X obj 220 301 notes 5 50 0 3 5 7 10;
#X obj 220 520 s_osc trill tri;
#X obj 220 496 sig~;
#X obj 220 466 mtof;
#X obj 220 617 *~;
#X obj 261 487 vline~;
#X obj 220 441 +;
#X obj 220 405 t f b b;
#X obj 264 545 s_osc trill saw;
#X obj 220 212 r #SYNTH-NOTE;
#X obj 245 150 print;
#X obj 121 52 dumpOSC 41234;
#X obj 237 783 dac~;
#X obj 228 649 *~ 0.2;
#X floatatom 254 178 5 0 0 0 - - -;
#X obj 167 224 swap 10;
#X obj 168 258 -;
#X msg 261 466 0 5 \, 1 50 5 \, 0 100 150;
#X obj 219 374 spigot;
#X obj 312 249 tgl 15 0 empty empty empty 17 7 0 10 -262144 -1 -1 0
1;
#X obj 220 334 f;
#X obj 315 271 metro 100;
#X obj 129 241 / 10;
#X obj 264 572 *~ 1;
#X obj 131 286 abs;
#X obj 210 557 *~ 1;
#X obj 118 377 swap 1;
#X obj 116 407 -;
#X obj 363 737 delread~ del 150;
#X floatatom 343 603 5 0 0 0 - - -;
#X obj 361 710 delwrite~ del 200;
#X obj 324 668 *~ 1;
#X obj 316 722 *~ 0.5;
#X obj 328 629 - 0.5;
#X obj 327 649 max 0;
#X obj 127 87 OSCroute /accelX /accelY /0;
#X obj 243 123 OSCroute /button0;
#X connect 0 0 20 1;
#X connect 1 0 25 0;
#X connect 2 0 1 0;
#X connect 2 0 8 0;
#X connect 3 0 2 0;
#X connect 4 0 13 0;
#X connect 4 0 31 0;
#X connect 5 0 4 1;
#X connect 6 0 3 0;
#X connect 7 0 6 0;
#X connect 7 1 17 0;
#X connect 8 0 23 0;
#X connect 9 0 0 0;
#X connect 11 0 35 0;
#X connect 13 0 12 0;
#X connect 13 0 12 1;
#X connect 14 0 0 0;
#X connect 15 0 16 0;
#X connect 15 1 16 1;
#X connect 16 0 0 0;
#X connect 17 0 5 0;
#X connect 18 0 7 0;
#X connect 19 0 21 0;
#X connect 20 0 18 0;
#X connect 21 0 20 0;
#X connect 22 0 24 0;
#X connect 23 0 4 0;
#X connect 24 0 23 1;
#X connect 24 0 26 0;
#X connect 24 0 29 0;
#X connect 24 0 33 0;
#X connect 25 0 4 0;
#X connect 26 0 27 0;
#X connect 26 1 27 1;
#X connect 27 0 25 1;
#X connect 28 0 32 0;
#X connect 31 0 30 0;
#X connect 32 0 12 1;
#X connect 32 0 12 0;
#X connect 32 0 30 0;
#X connect 33 0 34 0;
#X connect 34 0 31 1;
#X connect 35 0 22 0;
#X connect 35 1 15 0;
#X connect 35 2 36 0;
#X connect 36 0 10 0;
