#N canvas 658 55 818 872 10;
#X obj 220 301 notes 5 50 0 3 5 7 10;
#X obj 220 520 s_osc trill tri;
#X obj 220 496 sig~;
#X obj 220 466 mtof;
#X obj 220 617 *~;
#X obj 261 487 vline~;
#X obj 220 441 +;
#X obj 220 405 t f b b;
#X obj 264 545 s_osc trill saw;
#X obj 220 212 r #SYNTH-NOTE;
#X obj 121 52 dumpOSC 41234;
#X obj 220 840 dac~;
#X obj 167 224 swap 10;
#X obj 168 258 -;
#X obj 219 374 spigot;
#X obj 312 249 tgl 15 0 empty empty empty 17 7 0 10 -262144 -1 -1 0
1;
#X obj 220 334 f;
#X obj 315 271 metro 100;
#X obj 129 241 / 10;
#X obj 264 572 *~ 1;
#X obj 131 286 abs;
#X obj 210 557 *~ 1;
#X obj 118 377 swap 1;
#X obj 116 407 -;
#X obj 127 87 OSCroute /accelX /accelY /0;
#X msg 275 368 1;
#X obj 243 123 OSCroute /button0 /button1 /button2 /button3;
#X obj 243 147 sel 1;
#X obj 283 147 sel 1;
#X obj 323 147 sel 1;
#X obj 363 147 sel 1;
#X msg 243 172 47;
#X msg 303 172 59;
#X msg 273 172 54;
#X msg 333 172 66;
#X msg 261 466 0 1 \, 1 1 1 \, 0 1000 150;
#X obj 374 788 lop~ 3200;
#X obj 250 790 lop~ 3200;
#X obj 250 810 *~ 0.8;
#X obj 374 809 *~ 0.8;
#X obj 250 748 delwrite~ del-l 2000;
#X obj 374 746 delwrite~ del-r 2000;
#X obj 250 769 delread~ del-l 800;
#X obj 374 767 delread~ del-r 800;
#X obj 220 659 e_reverb;
#X msg 265 638 dry 0.1;
#X obj 220 705 *~ 0.3;
#X obj 265 618 loadbang;
#X connect 0 0 16 1;
#X connect 1 0 21 0;
#X connect 2 0 1 0;
#X connect 2 0 8 0;
#X connect 3 0 2 0;
#X connect 4 0 44 0;
#X connect 5 0 4 1;
#X connect 6 0 3 0;
#X connect 7 0 6 0;
#X connect 7 1 35 0;
#X connect 8 0 19 0;
#X connect 9 0 0 0;
#X connect 10 0 24 0;
#X connect 12 0 13 0;
#X connect 12 1 13 1;
#X connect 13 0 0 0;
#X connect 14 0 7 0;
#X connect 15 0 17 0;
#X connect 16 0 14 0;
#X connect 17 0 16 0;
#X connect 18 0 20 0;
#X connect 19 0 4 0;
#X connect 20 0 19 1;
#X connect 20 0 22 0;
#X connect 21 0 4 0;
#X connect 22 0 23 0;
#X connect 22 1 23 1;
#X connect 23 0 21 1;
#X connect 24 0 18 0;
#X connect 24 1 12 0;
#X connect 24 2 26 0;
#X connect 25 0 14 1;
#X connect 26 0 27 0;
#X connect 26 1 28 0;
#X connect 26 2 29 0;
#X connect 26 3 30 0;
#X connect 27 0 31 0;
#X connect 28 0 33 0;
#X connect 29 0 32 0;
#X connect 30 0 34 0;
#X connect 31 0 7 0;
#X connect 32 0 7 0;
#X connect 33 0 7 0;
#X connect 34 0 7 0;
#X connect 35 0 5 0;
#X connect 36 0 39 0;
#X connect 37 0 38 0;
#X connect 38 0 41 0;
#X connect 38 0 11 0;
#X connect 39 0 40 0;
#X connect 39 0 11 1;
#X connect 42 0 37 0;
#X connect 43 0 36 0;
#X connect 44 0 46 0;
#X connect 44 1 46 0;
#X connect 45 0 44 1;
#X connect 46 0 11 0;
#X connect 46 0 11 1;
#X connect 46 0 40 0;
#X connect 47 0 45 0;
